HIERARCHY
ROOT root
{
	OFFSET	0	13.1	24.9
	CHANNELS 6  Xposition Yposition Zposition Xrotation Yrotation Zrotation
	JOINT spine_1
	{
		OFFSET	0	9.99999	0
		CHANNELS 3  Xrotation Yrotation Zrotation
		JOINT spine_2
		{
			OFFSET	0	112	-10
			CHANNELS 3  Xrotation Yrotation Zrotation
			JOINT spine_3
			{
				OFFSET	0	206.5	19.3
				CHANNELS 3  Xrotation Yrotation Zrotation
				JOINT spine_4
				{
					OFFSET	0	110.4	14.6
					CHANNELS 3  Xrotation Yrotation Zrotation
					JOINT neck_1
					{
						OFFSET	0	71.8	-50.3
						CHANNELS 3  Xrotation Yrotation Zrotation
						JOINT neck_2
						{
							OFFSET	0	86.2	-25.8
							CHANNELS 3  Xrotation Yrotation Zrotation
							JOINT head_ee
							{
								OFFSET	0	179.8	-8.7
								CHANNELS 3  Xrotation Yrotation Zrotation
								End Site
								{
									OFFSET	1	0	0
								}
							}
						}
					}
					JOINT left_clavicle
					{
						OFFSET	-43.2	22.4	-70.8
						CHANNELS 3  Xrotation Yrotation Zrotation
						JOINT left_shoulder
						{
							OFFSET	-93.9	-5.79999	48.7
							CHANNELS 3  Xrotation Yrotation Zrotation
							JOINT left_elbow
							{
								OFFSET	-291.4	-30.8	15.2
								CHANNELS 3  Xrotation Yrotation Zrotation
								JOINT left_lowarm_twist
								{
									OFFSET	-110.7	-3.89999	13.6
									CHANNELS 3  Xrotation Yrotation Zrotation
									JOINT left_hand
									{
										OFFSET	-110.7	-3.89999	13.6
										CHANNELS 3  Xrotation Yrotation Zrotation
										JOINT left_ee
										{
											OFFSET	-80.8	-5.10001	12.1
											CHANNELS 3  Xrotation Yrotation Zrotation
											End Site
											{
												OFFSET	1	0	0
											}
										}
									}
								}
							}
						}
					}
					JOINT right_clavicle
					{
						OFFSET	43.2	22.4	-70.8
						CHANNELS 3  Xrotation Yrotation Zrotation
						JOINT right_shoulder
						{
							OFFSET	93.9	-5.79999	48.7
							CHANNELS 3  Xrotation Yrotation Zrotation
							JOINT right_elbow
							{
								OFFSET	291.4	-30.8	15.2
								CHANNELS 3  Xrotation Yrotation Zrotation
								JOINT right_lowarm_twist
								{
									OFFSET	110.7	-3.89999	13.6
									CHANNELS 3  Xrotation Yrotation Zrotation
									JOINT right_hand
									{
										OFFSET	110.7	-3.89999	13.6
										CHANNELS 3  Xrotation Yrotation Zrotation
										JOINT right_ee
										{
											OFFSET	80.8	-5.10001	12.1
											CHANNELS 3  Xrotation Yrotation Zrotation
											End Site
											{
												OFFSET	1	0	0
											}
										}
									}
								}
							}
						}
					}
				}
			}
		}
	}
	JOINT left_hip
	{
		OFFSET	-82.8	-127.5	0.300001
		CHANNELS 3  Xrotation Yrotation Zrotation
		JOINT left_knee
		{
			OFFSET	-28.2	-396.7	2.2
			CHANNELS 3  Xrotation Yrotation Zrotation
			JOINT left_ankle
			{
				OFFSET	-11.7	-411.3	35.4
				CHANNELS 3  Xrotation Yrotation Zrotation
				JOINT left_toes
				{
					OFFSET	0	-60	-88.6
					CHANNELS 3  Xrotation Yrotation Zrotation
					JOINT left_foot_ee
					{
						OFFSET	-22.5	-16.5	-42.2
						CHANNELS 3  Xrotation Yrotation Zrotation
						End Site
						{
							OFFSET	1	0	0
						}
					}
				}
			}
		}
	}
	JOINT right_hip
	{
		OFFSET	82.8	-127.5	0.300001
		CHANNELS 3  Xrotation Yrotation Zrotation
		JOINT right_knee
		{
			OFFSET	28.2	-396.7	2.2
			CHANNELS 3  Xrotation Yrotation Zrotation
			JOINT right_ankle
			{
				OFFSET	11.7	-411.3	35.4
				CHANNELS 3  Xrotation Yrotation Zrotation
				JOINT right_toes
				{
					OFFSET	0	-60	-88.6
					CHANNELS 3  Xrotation Yrotation Zrotation
					JOINT right_foot_ee
					{
						OFFSET	22.5	-16.5	-42.2
						CHANNELS 3  Xrotation Yrotation Zrotation
						End Site
						{
							OFFSET	1	0	0
						}
					}
				}
			}
		}
	}
}
MOTION
Frames: 16
Frame Time: 0.02
1279.51 622.045 -1350.01 -56.616 58.152 52.9651 11.2182 0.060522 0.619494 11.2184 0.0209802 0.622089 11.2181 0.0110486 0.622345 11.2176 0.109196 0.61279 -20.8256 -8.03918 -5.83353 -20.9669 -12.6381 -8.8936 -0.0 0.0 -0.0 3.8066 3.1766 7.49892 -55.0833 -41.51 69.8108 0.756966 -20.5549 0.137258 86.6017 -4.6193 -8.93729 4.67139 32.0213 40.4681 -0.0 0.0 -0.0 3.9536 -20.8517 -8.16126 -47.2613 29.9213 -57.1911 0.493883 13.7478 -0.0595387 24.1526 -0.209782 3.05539 -1.91236 12.0251 18.2972 0.0 0.0 0.0 22.9879 1.091 2.22655 -19.8025 0.297936 3.00915 35.5765 -5.67436 -4.53957 -5.30859 0.0 0.0 -0.0 0.0 -0.0 54.3587 9.13578 -3.02028 -1.08594 -0.0431886 -0.161053 -1.91245 -7.5588 -0.28113 -13.5316 0.0 0.0 0.0 0.0 0.0 
1257.04 621.349 -1362.34 -57.7371 58.0609 53.8077 11.4166 0.0820809 0.600173 11.4168 0.0437248 0.604179 11.4168 0.0361745 0.604678 11.4163 0.131216 0.591377 -20.9055 -7.46117 -5.96389 -21.0001 -11.4668 -8.76674 -0.0 0.0 -0.0 4.31813 3.43759 8.47144 -54.1065 -41.4412 69.3124 0.78343 -21.2106 0.146692 86.4488 -4.60081 -8.93073 4.70215 31.7231 40.6972 -0.0 0.0 -0.0 3.70705 -20.9384 -7.80114 -47.0776 29.9244 -57.1851 0.490568 13.659 -0.0587534 24.3629 -0.205926 3.08197 -1.91907 12.6599 18.6177 0.0 0.0 0.0 22.1172 0.618782 2.25626 -20.5656 0.288486 3.12585 36.1101 -6.41916 -4.60248 -5.26085 0.0 0.0 -0.0 0.0 -0.0 54.6221 9.14458 -2.96908 -2.64757 -0.0999202 -0.393994 -2.40031 -7.75901 -0.353198 -12.7743 0.0 0.0 0.0 0.0 0.0 
1233.34 620.082 -1372.67 -57.8677 58.1562 54.0082 11.5571 0.110671 0.57699 11.5573 0.0737318 0.582862 11.5575 0.0678808 0.583573 11.5571 0.159192 0.565529 -20.9509 -6.84717 -5.07381 -21.0499 -10.722 -7.6825 -0.0 0.0 -0.0 4.43946 3.57883 8.7044 -53.4287 -41.3953 68.9495 0.80203 -21.6679 0.153491 85.3382 -4.46706 -8.8816 4.75915 31.2765 41.1249 -0.0 0.0 -0.0 3.72184 -21.4107 -7.82545 -46.7515 30.0263 -57.3611 0.49397 13.7502 -0.0595595 24.644 -0.200617 3.11749 -1.96625 12.9541 19.0786 0.0 0.0 0.0 21.6687 -0.154815 2.19258 -20.9027 0.283816 3.17736 36.3769 -7.00292 -4.63776 -5.22702 0.0 0.0 -0.0 0.0 -0.0 53.4819 8.90434 -3.43699 -4.46271 -0.157846 -0.66653 -4.00213 -8.26007 -0.590789 -12.1815 0.0 0.0 0.0 0.0 0.0 
1211.74 621.8 -1385.41 -58.6348 58.7305 54.5161 11.6806 0.0940303 0.569128 11.6807 0.0576252 0.573958 11.6808 0.0530998 0.574394 11.6804 0.143147 0.5588 -20.99 -6.44261 -4.44884 -21.092 -10.2503 -6.93261 -0.0 0.0 -0.0 4.52431 3.64223 8.86588 -52.9144 -41.3663 68.6448 0.814373 -21.9698 0.158078 84.5504 -4.37277 -8.84519 4.79878 30.9636 41.4248 -0.0 0.0 -0.0 3.72905 -21.6487 -7.837 -46.5136 30.0787 -57.3799 0.496415 13.8156 -0.060142 24.8509 -0.196598 3.14362 -1.99936 13.1609 19.4024 0.0 0.0 0.0 21.3232 -0.70299 2.12882 -21.1506 0.280189 3.21523 36.5896 -7.41075 -4.66513 -5.19037 0.0 0.0 -0.0 0.0 -0.0 52.7182 8.77008 -3.79637 -5.72359 -0.192985 -0.85684 -5.12782 -8.65385 -0.758572 -11.781 0.0 0.0 0.0 0.0 0.0 
1197.65 625.358 -1401.26 -61.3975 59.5215 57.7565 11.8086 0.074968 0.335189 11.8086 0.0534872 0.33928 11.8088 0.0515693 0.339576 11.8086 0.104552 0.32717 -22.0465 -6.30204 -3.48787 -22.1939 -10.5176 -6.1013 -0.0 0.0 -0.0 4.08714 3.40438 8.036 -53.8742 -42.3436 66.4398 0.813807 -21.956 0.157867 83.2802 -4.22181 -8.78376 4.87668 29.6538 42.0135 -0.0 0.0 -0.0 3.69814 -22.3428 -7.79563 -46.0158 29.9984 -56.1282 0.516452 14.3507 -0.0650175 25.6077 -0.181097 3.23904 -1.92018 14.0144 19.2027 0.0 0.0 0.0 20.7759 -5.13828 1.53885 -21.4108 0.276205 3.25495 39.3555 -5.95147 -4.89064 -5.11102 0.0 0.0 -0.0 0.0 -0.0 52.4721 8.61879 -4.08594 -6.21298 -0.205493 -0.930901 -4.21265 -11.8852 -0.62316 -11.9082 0.0 0.0 0.0 0.0 0.0 
1181.65 630.786 -1417.08 -62.1408 60.0007 59.186 11.9136 0.0775814 0.258961 11.9136 0.0609459 0.263373 11.9138 0.0599399 0.263604 11.9137 0.100819 0.250829 -23.413 -6.49415 -3.29203 -23.6043 -11.0578 -6.16901 -0.0 0.0 -0.0 4.06466 4.46881 8.03559 -52.7329 -42.9809 64.5025 0.752363 -20.4403 0.135647 82.9388 -4.18146 -8.76667 4.63745 26.3968 39.9775 -0.0 0.0 -0.0 3.66205 -23.3156 -7.74786 -46.141 30.885 -55.8552 0.559904 15.5021 -0.0762105 26.0041 -0.172475 3.28895 -1.89914 14.3672 19.2025 0.0 0.0 0.0 21.0694 -8.62918 0.865417 -22.9961 0.248038 3.49659 40.0514 -2.90475 -4.90801 -3.76604 0.0 0.0 -0.0 0.0 -0.0 51.2869 8.77675 -4.65017 -6.79243 -0.219484 -1.01872 -1.1768 -13.2301 -0.173285 -12.2457 0.0 0.0 0.0 0.0 0.0 
1165.47 630.619 -1429.35 -62.3338 60.6633 59.7656 11.9928 0.095666 0.277316 11.9928 0.0778259 0.282842 11.9931 0.0771374 0.28303 11.993 0.120868 0.267296 -24.3436 -6.65059 -3.14789 -24.5699 -11.4698 -6.22605 -0.0 0.0 -0.0 4.33339 4.66238 8.54157 -50.4329 -43.5369 62.236 0.70775 -19.3206 0.120475 82.8669 -4.17297 -8.76304 4.45032 23.8817 38.2472 -0.0 0.0 -0.0 3.79887 -23.0522 -7.93859 -45.537 31.624 -54.7757 0.596975 16.4743 -0.0864215 26.3143 -0.165488 3.32796 -1.89407 14.5978 19.2636 0.0 0.0 0.0 21.7505 -11.1015 0.701192 -24.515 0.214788 3.7273 40.0823 -0.714573 -4.88863 -2.82418 0.0 0.0 -0.0 0.0 -0.0 49.6754 8.89524 -5.12948 -7.48727 -0.235088 -1.12421 1.00402 -14.1646 0.147324 -12.4779 0.0 0.0 0.0 0.0 0.0 
1140.88 635.473 -1442.55 -63.5525 62.2835 61.0724 11.9894 0.158109 0.274842 11.9894 0.1403 0.284345 11.99 0.139593 0.284693 11.9899 0.182803 0.259074 -24.9917 -6.62144 -1.83166 -25.2747 -11.9947 -5.07729 -0.0 0.0 -0.0 4.34033 9.89267 8.68664 -50.6762 -47.8574 59.2772 0.596025 -16.4495 0.0861523 80.1507 -3.85593 -8.61824 4.35302 18.7458 36.5922 -0.0 0.0 -0.0 3.70678 -23.4743 -7.81023 -44.3769 32.6265 -56.3622 0.660156 18.109 -0.105203 26.3063 -0.165671 3.32695 -2.27971 15.1011 22.2325 0.0 0.0 0.0 23.5493 -13.758 1.03094 -32.5982 -0.0641879 4.93542 40.9216 2.17313 -4.94196 1.5865 -0.0 -0.0 -0.0 0.0 -0.0 45.9423 7.3405 -4.99343 -7.89924 -0.243735 -1.18684 6.06709 -15.1317 0.880012 -13.0784 0.0 0.0 0.0 0.0 0.0 
1118.93 638.324 -1448.5 -62.1712 63.4494 59.7561 11.8525 0.277601 0.155108 11.8524 0.267168 0.172458 11.8533 0.266325 0.173757 11.8534 0.290425 0.129515 -26.426 -6.67547 -1.95819 -26.7375 -12.0754 -5.39781 -0.0 0.0 -0.0 4.09032 13.0543 8.31364 -48.9132 -49.8733 55.5314 0.488722 -13.6096 0.0583184 78.541 -3.67138 -8.52539 4.19849 14.6179 34.3979 -0.0 0.0 -0.0 3.57738 -22.0562 -7.62215 -43.6986 33.3332 -56.8788 0.706885 19.2988 -0.120189 26.4431 -0.162525 3.34414 -2.31641 17.0168 23.2915 0.0 0.0 0.0 26.5741 -15.2909 2.52848 -39.1449 -0.413262 5.87821 39.5811 7.43504 -4.82563 4.81123 -0.0 -0.0 -0.0 0.0 -0.0 42.3594 6.23403 -5.01054 -8.1857 -0.249482 -1.23042 11.2713 -16.4163 1.61311 -13.5067 0.0 0.0 0.0 0.0 0.0 
1105.31 642.212 -1453.36 -60.8904 63.8675 58.5181 11.6947 0.504645 0.0665536 11.6946 0.499388 0.0985314 11.6958 0.498623 0.102333 11.6962 0.508526 0.0222981 -28.119 -6.8864 -2.0909 -28.4834 -12.4552 -5.85292 -0.0 0.0 -0.0 3.80885 15.5583 7.89381 -48.0088 -51.2576 53.2418 0.418098 -11.7015 0.0428431 77.1142 -3.51003 -8.4388 4.10967 10.9033 32.638 -0.0 0.0 -0.0 3.72111 -20.7582 -7.82048 -42.8731 33.8203 -55.7654 0.740825 20.1523 -0.131644 26.6214 -0.158361 3.36654 -2.34005 18.4219 24.0321 0.0 0.0 0.0 29.8948 -16.6364 4.43118 -43.4319 -0.699417 6.47192 37.855 12.0379 -4.7001 7.06153 -0.0 -0.0 -0.0 0.0 -0.0 39.8411 5.45076 -5.0919 -6.77843 -0.219156 -1.0166 16.3664 -18.5875 2.31417 -13.7434 0.0 0.0 0.0 0.0 0.0 
1087.33 647.018 -1457.92 -59.425 63.6634 57.133 11.5856 0.388475 0.0688513 11.5855 0.383307 0.0934318 11.5863 0.382399 0.0970807 11.5865 0.392932 0.0354686 -28.2457 -8.07668 -2.682 -28.7445 -14.524 -7.12035 -0.0 0.0 -0.0 4.16786 17.3886 8.48042 -45.9254 -52.7191 51.8341 0.373737 -10.4891 0.0343058 77.4205 -3.54449 -8.45773 3.89992 7.29289 29.8452 -0.0 0.0 -0.0 4.00429 -19.1331 -8.23417 -41.9113 34.8235 -55.3203 0.797649 21.5604 -0.151877 25.9981 -0.172608 3.2882 -2.34175 19.8653 24.6178 0.0 0.0 0.0 33.0102 -17.4476 6.28305 -46.1677 -0.905021 6.83915 35.0813 15.8668 -4.47802 8.33488 -0.0 -0.0 -0.0 0.0 -0.0 37.9787 4.45868 -5.06231 -5.79414 -0.194827 -0.867509 19.7108 -21.5122 2.78146 -13.9681 0.0 0.0 0.0 0.0 0.0 
1073.22 645.624 -1458.87 -60.3447 63.8117 57.917 11.3891 0.241742 0.124346 11.3891 0.23334 0.139477 11.3897 0.231512 0.14249 11.3898 0.25111 0.104139 -28.0514 -8.96468 -2.94684 -28.6643 -16.1258 -7.86472 -0.0 0.0 -0.0 4.4221 18.6388 8.8709 -44.71 -53.6829 50.7847 0.343225 -9.64956 0.0289709 77.6187 -3.56684 -8.46987 3.72421 3.92929 27.3061 -0.0 0.0 -0.0 4.07232 -17.9423 -8.33399 -41.9777 35.2134 -54.5721 0.833414 22.4331 -0.165273 25.6231 -0.180769 3.24099 -2.29833 21.8112 25.0587 0.0 0.0 0.0 33.7123 -18.2003 6.6942 -48.2214 -1.07082 7.10826 32.9906 18.5162 -4.30401 9.3301 -0.0 -0.0 -0.0 0.0 -0.0 37.0439 3.79345 -4.86902 -4.96395 -0.172316 -0.742093 23.2501 -23.438 3.26089 -14.0665 0.0 0.0 0.0 0.0 0.0 
1058.9 647.325 -1466.12 -61.01 64.6264 59.0743 11.2503 0.137382 0.134381 11.2503 0.128552 0.14285 11.2506 0.126338 0.144812 11.2506 0.147623 0.123042 -27.439 -10.0008 -3.48787 -28.17 -17.8974 -8.87304 -0.0 0.0 -0.0 4.58427 19.5132 9.10813 -50.494 -52.0191 47.9882 0.328528 -9.24364 0.0265587 77.463 -3.54928 -8.46034 3.80436 -0.105392 26.3266 -0.0 0.0 -0.0 4.28363 -16.9231 -8.66097 -40.4466 36.1065 -54.6207 0.865928 23.2169 -0.177886 25.1861 -0.18989 3.1859 -2.32821 22.6858 25.6047 0.0 0.0 0.0 35.4623 -18.7448 6.88386 -49.3335 -1.16462 7.25151 28.5519 20.3685 -3.84614 9.24989 -0.0 -0.0 -0.0 0.0 -0.0 37.6783 2.26925 -4.95637 -9.07861 -0.265996 -1.36644 27.0711 -25.2043 3.76599 -14.0177 0.0 0.0 0.0 0.0 0.0 
1041.81 641.904 -1475.08 -62.185 64.9272 60.5546 11.2241 -0.00548879 0.109563 11.2241 -0.0124494 0.108991 11.2241 -0.0141762 0.10878 11.2241 0.00318152 0.109654 -26.8687 -9.97983 -3.907 -27.5472 -17.6796 -9.1354 -0.0 0.0 -0.0 5.12991 18.9339 9.94951 -52.2166 -50.7207 45.9394 0.317781 -8.94624 0.02486 78.2392 -3.63708 -8.50741 3.63865 -2.75947 23.9899 -0.0 0.0 -0.0 4.62744 -16.2382 -9.20777 -38.9841 36.7595 -54.8473 0.905367 24.1555 -0.19373 24.0161 -0.212233 3.03813 -2.28741 23.6857 25.685 0.0 0.0 0.0 37.1334 -19.0815 7.802 -50.187 -1.2385 7.36022 25.0434 21.1751 -3.44534 9.05594 -0.0 -0.0 -0.0 0.0 -0.0 38.0438 1.24153 -5.30703 -12.1279 -0.306372 -1.83253 31.2111 -25.0382 4.24688 -14.0772 0.0 0.0 0.0 0.0 0.0 
1034.29 644.413 -1484.6 -63.8911 65.148 62.4137 11.1654 -0.0886692 0.147864 11.1654 -0.0978985 0.141922 11.1651 -0.100281 0.140249 11.1651 -0.0768732 0.154326 -26.4639 -9.90592 -4.20219 -27.0958 -17.4061 -9.28523 -0.0 0.0 -0.0 5.26015 17.9718 10.1773 -53.7295 -49.6428 44.0629 0.31254 -8.80103 0.0240516 78.7816 -3.6988 -8.5396 3.52127 -4.63322 22.3238 -0.0 0.0 -0.0 4.8193 -15.5805 -9.52088 -38.1539 37.0493 -54.2399 0.933797 24.8237 -0.205516 23.1759 -0.226415 2.93173 -2.25069 24.426 25.6954 0.0 0.0 0.0 38.399 -19.549 8.56396 -50.7114 -1.28469 7.42647 22.5481 21.6931 -3.1455 8.90285 -0.0 -0.0 -0.0 0.0 -0.0 38.2298 0.613919 -5.65645 -14.2828 -0.319924 -2.16287 33.9063 -24.926 4.54261 -14.1487 0.0 0.0 0.0 0.0 0.0 
1024.89 651.264 -1491.86 -65.2474 65.2363 63.9523 11.0926 -0.047472 0.250988 11.0927 -0.0633468 0.247458 11.0923 -0.06783 0.246267 11.0922 -0.0280856 0.253889 -26.2168 -9.76093 -4.17131 -26.8175 -17.1278 -9.1274 -0.0 0.0 -0.0 5.45316 17.3184 10.4994 -54.219 -49.1968 43.1383 0.312978 -8.81317 0.0241186 79.153 -3.74125 -8.56131 3.4378 -5.92747 21.1504 -0.0 0.0 -0.0 5.37131 -15.1523 -10.4247 -37.2862 37.3506 -53.1879 0.96048 25.4444 -0.216849 22.578 -0.235556 2.85591 -2.22103 24.9712 25.6832 0.0 0.0 0.0 40.3058 -20.2191 9.01313 -50.5656 -1.27179 7.40809 20.7253 22.0775 -2.9196 8.75772 -0.0 -0.0 -0.0 0.0 -0.0 38.0832 0.191777 -5.84843 -15.7933 -0.322012 -2.39459 35.5846 -25.0652 4.72558 -14.216 0.0 0.0 0.0 0.0 0.0 
